<?xml version="1.0" encoding="UTF-8" standalone="no"?>
<svg
   width="256"
   height="256"
   version="1.1"
   viewBox="0 0 67.733 67.733"
   id="svg15"
   xml:space="preserve"
   xmlns:xlink="http://www.w3.org/1999/xlink"
   xmlns="http://www.w3.org/2000/svg"
   xmlns:svg="http://www.w3.org/2000/svg"><defs
     id="defs7"><linearGradient
       id="linearGradient4618"
       x1="-15.014"
       x2="-.36267"
       y1="50.707"
       y2="75.222"
       gradientUnits="userSpaceOnUse"><stop
         stop-color="#e81c24"
         offset="0"
         id="stop2" /><stop
         stop-color="#7c1315"
         offset="1"
         id="stop4" /></linearGradient><linearGradient
       xlink:href="#linearGradient4618"
       id="linearGradient425"
       gradientUnits="userSpaceOnUse"
       x1="-15.014"
       y1="50.707"
       x2="-.36267"
       y2="75.222"
       gradientTransform="matrix(1.2378,0,0,1.2378,48.836,-29.768)" /><linearGradient
       xlink:href="#linearGradient4618"
       id="linearGradient427"
       gradientUnits="userSpaceOnUse"
       x1="-15.014"
       y1="50.707"
       x2="-.36267"
       y2="75.222"
       gradientTransform="matrix(1.2378,0,0,1.2378,48.836,-29.768)" /></defs><rect
     style="fill:#ffffff;fill-opacity:1;stroke:#000000;stroke-width:1.05833;stroke-dasharray:none;stroke-opacity:1"
     id="rect3576"
     width="50.270592"
     height="50.270592"
     x="16.623024"
     y="16.93325"
     ry="0" /><path
     d="M 21.208304,52.004781 64.294884,38.726901 6.6666296,5.2728802 51.484892,38.375366 24.240914,46.35014 Z"
     id="path9"
     style="fill:url(#linearGradient425);stroke-width:1.2378" /><path
     d="M 3.439685,7.5095848 23.74827,32.773083 9.090242,62.462954 18.728124,59.492729 c 3.841265,-8.83158 7.68253,-17.663406 11.523671,-26.493871 l 0.501049,6.952227 11.936476,-3.083979 z"
     id="path11"
     style="fill:url(#linearGradient427);stroke-width:1.2378" /><path
     id="path449"
     style="fill:#000000;stroke:none;stroke-width:0.793746;stroke-dasharray:none;stroke-opacity:1"
     d="m 52.20107,24.243794 c -0.359675,-0.0042 -0.720797,0.01314 -1.080549,0.05271 -3.200966,0.352112 -5.983863,2.453035 -7.213995,5.445635 -0.661897,1.61023 -0.829164,3.39828 -0.479038,5.123176 0.406447,2.002354 1.520152,3.825603 3.126926,5.119043 1.297237,1.044264 2.843512,1.693774 4.528383,1.901683 0.469015,0.05791 1.575424,0.05717 2.029324,-10e-4 1.926083,-0.246984 3.522253,-0.973416 4.940759,-2.248947 0.951833,-0.855894 1.776093,-2.044506 2.247914,-3.241646 l 0.102319,-0.259415 0.137975,0.01447 c 0.311137,0.03332 0.63389,0.08566 0.871777,0.141593 2.167106,0.906241 2.615987,2.867045 2.631352,4.402294 0.0024,0.238329 -0.01537,2.698063 -0.01537,9.577196 v 9.260371 c 5e-6,0.529164 0.529169,0.793746 0.793746,0.793746 0.264587,0 0.793751,-0.264582 0.793746,-0.793746 v -9.260371 l 5e-6,-9.524953 c 0,-2.910403 -1.53257,-4.990836 -3.174985,-5.820805 -0.499982,-0.192451 -0.814519,-0.355142 -1.500304,-0.448082 l -0.104386,-0.01395 0.02894,-0.209805 c 0.118045,-0.863055 0.09504,-1.871412 -0.06253,-2.746589 -0.536837,-2.981732 -2.621611,-5.520855 -5.455454,-6.64504 -0.999132,-0.396356 -2.067539,-0.604837 -3.146562,-0.61753 z m -0.01499,1.717199 c 0.237225,9.83e-4 0.463999,0.01041 0.639751,0.02894 1.385396,0.146083 2.684944,0.682445 3.74859,1.546668 1.47838,1.201199 2.385884,2.851219 2.617398,4.758859 0.04926,0.405676 0.04796,1.184626 -0.0026,1.606613 -0.203414,1.69851 -0.949433,3.1927 -2.180734,4.367153 -1.060018,1.011075 -2.380881,1.654445 -3.865379,1.88308 -0.377568,0.05814 -0.925543,0.08335 -1.395256,0.06408 -1.520897,-0.06238 -3.003792,-0.640358 -4.213159,-1.641752 -0.322367,-0.266932 -0.850906,-0.817269 -1.101736,-1.147212 -1.017986,-1.339068 -1.513283,-2.876383 -1.464503,-4.545436 0.04576,-1.565621 0.573977,-3.010361 1.551319,-4.242098 0.245238,-0.309071 0.814886,-0.878202 1.123957,-1.12344 1.010896,-0.80211 2.147658,-1.294238 3.449901,-1.493441 0.271627,-0.04155 0.697059,-0.06365 1.092435,-0.06201 z" /><path
     style="fill:#000000;stroke-width:0.79374609;stroke:none;stroke-opacity:1;stroke-dasharray:none"
     d="m 31.949107,56.237713 c -1.096421,-0.08272 -1.893316,-0.251044 -2.762964,-0.583593 -2.352944,-0.899752 -4.487657,-2.822246 -6.140664,-5.530198 -0.342755,-0.561498 -0.767538,-1.367379 -0.909822,-1.726077 -0.185321,-0.467189 0.03932,-0.973579 0.504415,-1.137047 0.241785,-0.08498 0.381839,-0.06581 0.92102,0.126057 1.699115,0.604634 3.110103,0.884868 4.455334,0.884868 1.185305,0 2.0802,-0.194602 2.958184,-0.643276 0.903659,-0.461795 1.595143,-1.135591 2.006804,-1.955469 0.335667,-0.668525 0.649684,-1.113552 1.111115,-1.574674 0.469035,-0.468719 0.908096,-0.784921 1.479413,-1.065437 1.604074,-0.787597 3.446511,-0.774003 5.037574,0.03717 0.307719,0.156885 0.718311,0.422659 0.981081,0.635051 l 0.171675,0.138764 0.06908,-0.05687 c 0.650845,-0.535799 1.350245,-0.908057 2.105366,-1.120589 1.964459,-0.552908 4.065398,-0.0091 5.484538,1.419723 0.445886,0.448915 0.794165,0.939789 1.092372,1.539619 0.217368,0.437229 0.436966,0.7437 0.783344,1.093246 0.880046,0.888087 2.050183,1.399256 3.506767,1.531911 0.382412,0.03483 1.396506,0.0148 1.805863,-0.03566 1.048554,-0.129258 2.108905,-0.388973 3.278895,-0.803109 l 0.561768,-0.198846 0.1949,0.0089 c 0.233272,0.01065 0.388127,0.07762 0.553457,0.239369 0.157971,0.154543 0.23188,0.321315 0.244459,0.551601 0.01322,0.242143 -0.01,0.313171 -0.282932,0.866204 -1.034274,2.095524 -2.578466,4.034451 -4.218072,5.296323 -1.061393,0.816867 -2.159544,1.383544 -3.32872,1.717712 -3.135658,0.89622 -6.506177,0.07315 -10.050546,-2.454322 -0.158576,-0.11308 -0.414658,-0.267617 -0.573233,-0.345927 -0.333686,-0.164787 -0.754713,-0.435151 -1.032179,-0.662821 L 41.762141,52.2701 41.5676,52.42853 c -0.291149,0.237107 -0.703122,0.502599 -1.028341,0.662703 -0.159355,0.07845 -0.408396,0.226845 -0.553424,0.329768 -2.311948,1.640699 -4.432617,2.534253 -6.580719,2.772814 -0.301076,0.03344 -1.225343,0.0613 -1.456012,0.0439 z"
     id="path445" /></svg>
